<svg width="40" height="40" viewBox="0 0 40 40" fill="none" xmlns="http://www.w3.org/2000/svg">
<g id="material-symbols:switch-account">
<path id="Vector" d="M23.3335 18.3333C24.7224 18.3333 25.9029 17.8472 26.8752 16.875C27.8474 15.9028 28.3335 14.7222 28.3335 13.3333C28.3335 11.9444 27.8474 10.7639 26.8752 9.79167C25.9029 8.81945 24.7224 8.33333 23.3335 8.33333C21.9446 8.33333 20.7641 8.81945 19.7918 9.79167C18.8196 10.7639 18.3335 11.9444 18.3335 13.3333C18.3335 14.7222 18.8196 15.9028 19.7918 16.875C20.7641 17.8472 21.9446 18.3333 23.3335 18.3333ZM13.3335 30C12.4168 30 11.6318 29.6733 10.9785 29.02C10.3252 28.3667 9.99905 27.5822 10.0002 26.6667V6.66667C10.0002 5.75 10.3268 4.965 10.9802 4.31167C11.6335 3.65833 12.4179 3.33222 13.3335 3.33333H33.3335C34.2502 3.33333 35.0352 3.66 35.6885 4.31333C36.3418 4.96667 36.6679 5.75111 36.6668 6.66667V26.6667C36.6668 27.5833 36.3402 28.3683 35.6868 29.0217C35.0335 29.675 34.2491 30.0011 33.3335 30H13.3335ZM6.66683 36.6667C5.75017 36.6667 4.96517 36.34 4.31183 35.6867C3.6585 35.0333 3.33239 34.2489 3.3335 33.3333V10H6.66683V33.3333H30.0002V36.6667H6.66683ZM13.3335 26.6667H33.3335C32.1668 25.0833 30.7013 23.8544 28.9368 22.98C27.1724 22.1056 25.3046 21.6678 23.3335 21.6667C21.3613 21.6667 19.4929 22.1044 17.7285 22.98C15.9641 23.8556 14.4991 25.0844 13.3335 26.6667Z" fill="#2B6777"/>
</g>
</svg>
