<svg width="40" height="40" viewBox="0 0 40 40" fill="none" xmlns="http://www.w3.org/2000/svg">
<g id="mdi:account">
<path id="Vector" d="M19.9998 6.66667C21.7679 6.66667 23.4636 7.36904 24.7139 8.61929C25.9641 9.86953 26.6665 11.5652 26.6665 13.3333C26.6665 15.1014 25.9641 16.7971 24.7139 18.0474C23.4636 19.2976 21.7679 20 19.9998 20C18.2317 20 16.536 19.2976 15.2858 18.0474C14.0355 16.7971 13.3332 15.1014 13.3332 13.3333C13.3332 11.5652 14.0355 9.86953 15.2858 8.61929C16.536 7.36904 18.2317 6.66667 19.9998 6.66667ZM19.9998 23.3333C27.3665 23.3333 33.3332 26.3167 33.3332 30V33.3333H6.6665V30C6.6665 26.3167 12.6332 23.3333 19.9998 23.3333Z" fill="#2B6777"/>
</g>
</svg>
