<svg width="40" height="40" viewBox="0 0 40 40" fill="none" xmlns="http://www.w3.org/2000/svg">
<g id="clarity:file-zip-solid" clip-path="url(#clip0_32_670)">
<path id="Vector" d="M16.6665 28.4444C17.6664 28.4444 18.4442 27.6667 18.4442 26.6667V23.7778H14.8887V26.6667C14.8887 27.6667 15.6665 28.4444 16.6665 28.4444Z" fill="#2B6777"/>
<path id="Vector_2" d="M24.3332 4.44446H8.6665C7.55539 4.44446 6.6665 5.44446 6.6665 6.55557V33.4445C6.6665 34.5556 7.55539 35.5556 8.6665 35.5556H31.2221C32.3332 35.5556 33.2221 34.5556 33.2221 33.4445V13.2222L24.3332 4.44446ZM19.9998 26.6667C19.9998 28.5556 18.5554 30 16.6665 30C14.7776 30 13.3332 28.5556 13.3332 26.6667V22.2222H19.9998V26.6667ZM19.1109 13.3333C19.7776 13.3333 20.2221 13.7778 20.2221 14.4445C20.2221 15.1111 19.7776 15.5556 19.1109 15.5556H16.6665V17.7778H19.1109C19.7776 17.7778 20.2221 18.2222 20.2221 18.8889C20.2221 19.5556 19.7776 20 19.1109 20H16.6665V17.7778H14.2221C13.5554 17.7778 13.1109 17.3333 13.1109 16.6667C13.1109 16 13.5554 15.5556 14.2221 15.5556H16.6665V13.3333H14.2221C13.5554 13.3333 13.1109 12.8889 13.1109 12.2222C13.1109 11.5556 13.5554 11.1111 14.2221 11.1111H16.6665V8.8889H19.1109C19.7776 8.8889 20.2221 9.33335 20.2221 10C20.2221 10.6667 19.7776 11.1111 19.1109 11.1111H16.6665V13.3333H19.1109ZM24.3332 13.3333V7.22224L30.6665 13.3333H24.3332Z" fill="#2B6777"/>
</g>
<defs>
<clipPath id="clip0_32_670">
<rect width="40" height="40" fill="white"/>
</clipPath>
</defs>
</svg>
